<svg width="44" height="35" viewBox="0 0 44 35" fill="none" xmlns="http://www.w3.org/2000/svg">
<path d="M1.27683 21.9585C0.44135 20.6116 0 19.0702 0 17.4992C0 15.9282 0.44135 14.3868 1.27683 13.0398C1.53359 12.6251 1.87716 12.267 2.28547 11.9885C2.69377 11.7099 3.15778 11.5171 3.64767 11.4225L7.68979 10.6392C7.93085 10.593 8.14827 10.4682 8.30578 10.2857L13.2432 4.5486C16.0653 1.26763 17.4787 -0.37054 18.737 0.070773C19.9952 0.512086 20 2.64703 20 6.9169V28.0861C20 32.3536 20 34.4863 18.7394 34.9299C17.4811 35.3689 16.0677 33.7307 13.2456 30.4521L8.301 24.7127C8.1441 24.5306 7.9276 24.4059 7.6874 24.3592L3.64528 23.5759C3.15539 23.4812 2.69139 23.2884 2.28308 23.0099C1.87477 22.7313 1.53359 22.3732 1.27683 21.9585Z" fill="white"/>
<path d="M26 8.89317C28.165 11.0456 29.3865 13.9616 29.3982 17.0056C29.4099 20.0496 28.211 22.9749 26.0626 25.1437M35.5623 4C39.0262 7.44359 40.9807 12.1089 40.9999 16.9791C41.019 21.8493 39.1012 26.5296 35.6644 30" stroke="white" stroke-width="4.66667" stroke-linecap="round"/>
</svg>
