<svg width="83" height="82" viewBox="0 0 83 82" fill="none" xmlns="http://www.w3.org/2000/svg">
<path d="M41.5 0C42.6294 0.000147202 43.7195 0.409826 44.5635 1.15133C45.4075 1.89283 45.9467 2.91459 46.0788 4.0228L46.1111 4.55584V77.4492C46.1098 78.6104 45.6598 79.7273 44.853 80.5716C44.0462 81.416 42.9435 81.9241 41.7702 81.9922C40.597 82.0602 39.4417 81.6831 38.5404 80.9378C37.6392 80.1925 37.06 79.1353 36.9212 77.9823L36.8889 77.4492V4.55584C36.8889 3.34755 37.3747 2.18876 38.2395 1.33437C39.1042 0.479988 40.2771 0 41.5 0ZM23.0556 13.6675C24.2785 13.6675 25.4514 14.1475 26.3161 15.0019C27.1809 15.8563 27.6667 17.0151 27.6667 18.2233V63.7817C27.6667 64.99 27.1809 66.1488 26.3161 67.0032C25.4514 67.8576 24.2785 68.3375 23.0556 68.3375C21.8326 68.3375 20.6598 67.8576 19.795 67.0032C18.9303 66.1488 18.4444 64.99 18.4444 63.7817V18.2233C18.4444 17.0151 18.9303 15.8563 19.795 15.0019C20.6598 14.1475 21.8326 13.6675 23.0556 13.6675ZM59.9444 13.6675C61.1674 13.6675 62.3402 14.1475 63.205 15.0019C64.0697 15.8563 64.5556 17.0151 64.5556 18.2233V63.7817C64.5556 64.99 64.0697 66.1488 63.205 67.0032C62.3402 67.8576 61.1674 68.3375 59.9444 68.3375C58.7215 68.3375 57.5486 67.8576 56.6839 67.0032C55.8191 66.1488 55.3333 64.99 55.3333 63.7817V18.2233C55.3333 17.0151 55.8191 15.8563 56.6839 15.0019C57.5486 14.1475 58.7215 13.6675 59.9444 13.6675ZM4.61111 27.335C5.83405 27.335 7.00691 27.815 7.87166 28.6694C8.73641 29.5238 9.22222 30.6826 9.22222 31.8909V50.1142C9.22222 51.3225 8.73641 52.4813 7.87166 53.3357C7.00691 54.19 5.83405 54.67 4.61111 54.67C3.38817 54.67 2.21531 54.19 1.35056 53.3357C0.485812 52.4813 0 51.3225 0 50.1142V31.8909C0 30.6826 0.485812 29.5238 1.35056 28.6694C2.21531 27.815 3.38817 27.335 4.61111 27.335ZM78.3889 27.335C79.5183 27.3352 80.6084 27.7448 81.4524 28.4863C82.2964 29.2278 82.8356 30.2496 82.9677 31.3578L83 31.8909V50.1142C82.9987 51.2754 82.5487 52.3923 81.7419 53.2366C80.9351 54.081 79.8324 54.5891 78.6591 54.6572C77.4859 54.7252 76.3306 54.3481 75.4293 53.6028C74.5281 52.8575 73.9489 51.8003 73.8101 50.6472L73.7778 50.1142V31.8909C73.7778 30.6826 74.2636 29.5238 75.1283 28.6694C75.9931 27.815 77.1659 27.335 78.3889 27.335Z" fill="white"/>
</svg>
